<svg xmlns="http://www.w3.org/2000/svg" viewBox="0 0 134 134"><defs><style>.cls-1{fill:#f99b1a;}.cls-2{fill:#fff;fill-rule:evenodd;}</style></defs><title>ag-logo-white-orange</title><g id="Layer_2" data-name="Layer 2"><g id="Layer_3" data-name="Layer 3"><circle class="cls-1" cx="67" cy="67" r="67"/><path class="cls-2" d="M52.36,32.66h.35a3.15,3.15,0,0,1,2.67,2,9.4,9.4,0,0,1-.48,2.88c-.15.36-.55.58-.62,1a5.59,5.59,0,0,0,.07,1.3c-.05-.1.5.28.34.2a8.77,8.77,0,0,0,2.06.62c.56.1,1.17,0,1.64.07.25,0,.39.23.62.27s.93-.07,1.23,0c.13,0,.22.21.41.28s.42-.07.55,0,.07.17.2.2a15.47,15.47,0,0,1,2.47.34,1.22,1.22,0,0,0,.14.35c.18.06.63,0,1,.13a6.22,6.22,0,0,0,1.1.21c.32,0,.55-.24.82-.21.48.07.72.74,1.44.62,0,.21-.19.13-.14.34a2.15,2.15,0,0,1,1.44.28c.76.21,1.58.12,2.33.27.26,0,.49.29.75.34s.46-.05.69,0a5,5,0,0,0,.48.21c1.36.24,2.86.21,4.31.34a30.18,30.18,0,0,0,6.1.21,4.63,4.63,0,0,1,1-.21,7.17,7.17,0,0,1,.76.21,35.56,35.56,0,0,0,4.38,0c.4,0,.78.24,1.17.27s.87-.21,1.3-.21a8.27,8.27,0,0,0,.89.14c.15,0,.25-.19.41-.2a10.69,10.69,0,0,1,1.3.13c.55.07,1.21.13,1.64.21a6.86,6.86,0,0,0,.89.27c.27,0,.45-.13.69-.07a1.51,1.51,0,0,1,.75.69c0,.1,0,.38.07.55a2.12,2.12,0,0,1,.2,1.3c-.07.66-.48,1.72-.27,2a4.75,4.75,0,0,0,.75.41c.27.16.59.25.69.48a5.18,5.18,0,0,1-.41,2.88c-.2.42-.24.12-.69.34,0,0,0,.18,0,.21s-.17,0-.2,0-.12.21-.21.27-.29,0-.41.07-.11.24-.2.27c-.39.16-1,.13-1.37.28-.2.07-.26.23-.41.27-1.21.3-2.52.37-3.63.55a8.83,8.83,0,0,0-1.78.55,1.6,1.6,0,0,0-.69.34c-.48.35-.76.05-1.3.07-.33,0-.72.34-1.1.48-.15,0-.36-.06-.54,0s-.18.23-.35.27-.32,0-.41,0-.18.28-.34.34c-.38.14-.89.07-1.23.21-.14,0-.22.29-.35.34s-.38-.06-.47,0-.1.26-.14.27-.5-.09-.69,0-.1.26-.2.28-.51-.06-.76,0-.22.23-.41.27-.36,0-.48,0-.27.3-.47.35-.62-.06-.9,0c-.08,0-.17.14-.34.2s-.56,0-.68.07-.15.23-.28.27-.42,0-.61,0a4.77,4.77,0,0,0-.55.28c-.73.33-1.66.27-2.47.61-.4.18-.64.6-1,.76-.18.07-.43,0-.62.06-.48.16-1.17.38-1.64.48s-.75,0-1,.07c-.05,0-.15.21-.27.28a8.82,8.82,0,0,1-1.72.89c-.69.17-1.49.11-2.26.27-.14,0-.32.18-.48.21a10.44,10.44,0,0,0-1.37,0c-.13,0-.28.23-.48.34a9.77,9.77,0,0,1-1.3.55c-.17.06-.45,0-.61.07s-.15.17-.28.2a10.45,10.45,0,0,0-1.78.34c-.25.13-.35.47-.61.55s-.61-.07-.89,0-.41.3-.62.34-.58-.07-.89,0c-.14,0,0,.18-.27.28s-.58-.06-.69,0-.14.24-.27.27c-.57.13-1.25-.12-1.85,0a7.16,7.16,0,0,0-1.3.55,10.74,10.74,0,0,1-2.67.62c-.14,0-.18.15-.35.2s-.47-.06-.61,0-.21.28-.35.34-.31,0-.47.07-.27.26-.35.28-.42-.12-.61-.07-.3.23-.48.27-.47-.06-.69,0-.35.24-.55.27-.58-.06-.89,0-.78.48-1.23.62-.6-.07-.75.21c-.07.13.26.34.34.55s-.1.42-.07.54a1.14,1.14,0,0,1,.28.07c.05.09,0,.4,0,.41.19.33.59.53.82.89s.32.71.41.89a3.37,3.37,0,0,1,.2.82c.13.44.48.85.55,1.24.19,1,0,2.07.28,2.81,0,.14.05.52.06.54s.16,0,.21.14a9.67,9.67,0,0,1,.27,1,24.41,24.41,0,0,0,.41,2.6,13,13,0,0,1,.76,1.92,3.21,3.21,0,0,1-.14.62,3.11,3.11,0,0,0,.48,1,5.56,5.56,0,0,0,2.74.21,26.49,26.49,0,0,0,3.49-1.17c.74-.2,1.59-.11,2.19-.27a11.48,11.48,0,0,0,1.65-.82c.55-.27,1.14-.59,1.71-.82A22.61,22.61,0,0,1,63.18,83c1.42-.38,2.52-1.24,4.11-1.44a11.41,11.41,0,0,0,1.17,0A9.92,9.92,0,0,0,70,80.87c.54-.24,1.19-.46,1.58-.69.21-.12.34-.31.55-.41a9.74,9.74,0,0,1,1.71-.27,9.25,9.25,0,0,0,1.37-.69,25.46,25.46,0,0,1,3-.75c.78-.23,1.58-.34,2.33-.55a22.29,22.29,0,0,0,2.19-1.09,20.24,20.24,0,0,1,2.06-.48c.23-.06.42-.23.61-.28s.46,0,.69,0c.86-.17,1.71-.57,2.53-.82.48-.14.89-.25,1.3-.41s.74-.41,1.17-.62A18.58,18.58,0,0,1,93.66,73c.27-.09.56-.29.75-.34s.36.06.55,0c.8-.26,1.53-.77,2.33-1,.5-.16,1-.17,1.51-.34a20.77,20.77,0,0,0,2.94-1.85c.67-.37,1.73-.57,2.06-1s.3-1.22.54-1.85.7-.85.62-1.37c-.93,0-1.55.61-2.26.89s-1.17.3-1.71.55-.93.7-1.44.89a16.7,16.7,0,0,1-2.67.28c-.3,0-.66.41-1,.48a4.67,4.67,0,0,0-1.44.54,11.69,11.69,0,0,1-2,.76,23.5,23.5,0,0,1-2.81.2,9.51,9.51,0,0,0-3,1.17,21.07,21.07,0,0,1-2.87.89c-1.66.44-3.11,1-4.59,1.44l-.89.27c-.61.17-1.28.46-1.78.55a5.3,5.3,0,0,0-.69,0c-.2,0-.36.29-.54.34s-.43,0-.62,0-.29.22-.48.27-.5,0-.62,0-.15.25-.27.28-.46,0-.68,0c-.75.12-2,.63-2.74.82s-1.29.1-1.85.27c-.24.08-.46.27-.69.35-1.54.5-3.13.76-4.59,1.23-.82.26-2.32,1.2-3.35.89-.29-.09-.23-.35-.55-.62-.11-.09-.49-.24-.75-.41a6.91,6.91,0,0,0-.76-.48c-1.07-.42-2.57,0-3.76-.34a5,5,0,0,1-1.78-1.51,2.31,2.31,0,0,1-.55-.82,5,5,0,0,1,.41-2.26c.69-1.73,1.73-1,3.56-1A9.21,9.21,0,0,0,59,70.46a6.32,6.32,0,0,1,1.3-.82c.43-.13,1.18-.1,1.78-.21,2.12-.4,4.24-1.29,6.44-1.92,1-.3,2.08-.67,3.15-1s2.3-.5,3.42-.83c.94-.26,1.73-.88,2.67-1.16s1.7-.4,2.47-.68,1.35-.77,2.12-1.1a22.69,22.69,0,0,1,2.26-.62c.84-.26,1.53-.91,2.33-1.16.53-.17.86-.06,1.44-.21.83-.2,1.64-.73,2.53-1,.53-.18.81-.22,1.23-.35.76-.22,1.25-.52,1.92-.75s1.43-.35,2.12-.62,1.35-.67,2-.89c1.47-.5,3.45-.94,4.73-1.3.64-.18,1.34-.91,1.91-1,1.61-.13,1.47,2.4,3,2.74a2.53,2.53,0,0,0,1.09-.06,23.19,23.19,0,0,0,2.95-1.37,14.16,14.16,0,0,1,2-1.17c.2-.06.53,0,.69-.07.47-.19.67-.61,1.23-.61.76,0,1.53.74,2.26,1s.53.08,1,.62a5.3,5.3,0,0,1,.68,2.4,22.85,22.85,0,0,1,.21,3.42c0,3,.43,6.64.48,9.93,0,1.39.13,2.66.14,4a13,13,0,0,0,0,2.26c0,.1.21.06.27.21s0,.48,0,.82.21.53.21.68-.18.43-.21.76a20.47,20.47,0,0,0,.14,2.33c.08,1.68.07,3.26.07,5.13a13.76,13.76,0,0,1,0,2.67c-.17.37-.76.29-1,.62a3.36,3.36,0,0,0-.41.89c-.06.3.21.73-.07,1a4.06,4.06,0,0,1-1.58-.21,5,5,0,0,1-2.19-1.5c-.72-.83-1.48-1.64-2.19-2.33,0-.06.06-.08.14-.07s0,.08.07,0c-.46-.37-.87-.48-1-1-.08-.28.08-.56,0-.89a5.81,5.81,0,0,0-.55-.89c-.48-.92-.87-1.75-1.3-2.74-.27-.61-.61-1.22-.82-1.78a20.31,20.31,0,0,1-.89-4.18c-.17-1.18-.65-2.45-1.51-1.57-.06.06-.15,0-.2.07s.12.12,0,.2-.7.11-1,.28-.29.41-.48.54a10.24,10.24,0,0,1-1.24.62,3.44,3.44,0,0,1-1,.27c-.07,0-.08.22-.21.28-.39.17-.89.21-1.16.34s-.44.41-.69.48-.26-.07-.41,0c-.55.26-1,.69-1.51.89s-.87.18-1.3.34c-.12,0-.21.22-.34.28-.4.17-.92.17-1.3.34-.6.26-1.06.83-1.64,1s-1,.21-1.37.48c-.08.06-.17,0-.28.06s-.3.3-.41.35-.37-.06-.55,0-.2.24-.34.27-.53,0-.75,0-.22.23-.34.28-.48,0-.69,0-.23.2-.41.27-.33,0-.48.07-.24.18-.34.2c-.39.1-.77,0-1.1.07s-.51.38-.75.48c-.47.2-.86.22-1.44.41-.14,0-.22.24-.34.28-.29.09-.53.11-.75.2-.47.19-1.09.26-1.37.41-.09,0-.2.23-.28.28s-.51.29-.75.41c-.53.25-.82.24-1.44.48a14.17,14.17,0,0,0-1.51.75,15.79,15.79,0,0,1-1.64.55c-.22.08-.55,0-.68.07s-.3.39-.48.48a5.59,5.59,0,0,1-.89.13c-.42.11-.8.39-1.17.48a5,5,0,0,0-1,.28c-.23.12-.41.22-.54.27s-.36,0-.41,0-.08.22-.21.27-.58.1-.82.21c-.45.2-.68.56-1.1.68s-.77.15-1.09.28c-.15,0-.33.15-.48.2-.52.18-1.1.24-1.65.41-.12,0-.09.22-.2.28s-.68.1-1,.27-.61.49-.82.55-.3,0-.41,0-.19.23-.34.27a9.87,9.87,0,0,1-1.1.28c-.11,0,0-.17-.21-.14a22,22,0,0,0-2.8,1c-.52.19-1.18.15-1.72.34-.14,0-.26.24-.41.27s-.46-.07-.68,0-.46.45-.75.55-.22-.07-.35,0-.26.37-.54.41-.41-.27-.62-.07c0,.53.57,1.23,1,.76.19.41.72.72.89,1.3.33,1.15-.26,3.07-1.17,3.29-.47.11-1-.26-1.43.06h-.07a16.92,16.92,0,0,1-6.65-1.64,4.69,4.69,0,0,1-1-.75c-.28-.39-.27-1-.48-1.37s-.65-.79-.89-1.23a14.84,14.84,0,0,1-1.17-3c0-.12-.18-.21-.2-.34s.05-.37,0-.48a3.23,3.23,0,0,1-.35-.34,19.29,19.29,0,0,1-1.57-2.33,5.2,5.2,0,0,0-.82-1.16c-.08-.1-.16-.11-.21-.21s0-.2,0-.21-.41-.17-.48-.27,0-.23-.07-.34-.14,0-.2-.14,0-.27-.07-.34-.16,0-.21-.14c-.35-.63-.58-1.1-1-1.71a4.66,4.66,0,0,1-.47-.69c-.17-.39-.18-.89-.35-1.3s-.36-.67-.48-1a10.33,10.33,0,0,0-.61-1.58,7.14,7.14,0,0,1-.55-1.64c-.08-.37,0-.82-.07-1.24,0-.11-.23-.14-.27-.27s.07-.69,0-1c0-.19-.23-.34-.28-.54s.06-.56,0-.76-.21-.06-.27-.2,0-.39,0-.48-.25-.13-.27-.21,0-.38,0-.41-.11.08-.28-.14-.51-.64-.62-.82,0-.26-.06-.41a4.92,4.92,0,0,1-.48-.75c-.14-.29-.32-.93-.76-1-.62,0-2.08,1.65-2.67,2.33l-1.16,1.37a14.26,14.26,0,0,1-1.1,1.37,27.48,27.48,0,0,1-2.39,1.64,21.06,21.06,0,0,1-2.54,1.51c-.39.17-.88.17-1.23.34s-.74.87-1.3,1a7.43,7.43,0,0,1-2.74-.48C18,79.66,18,78.43,17.71,78a7,7,0,0,0-1.57-1.16,9.28,9.28,0,0,1-2.26-1.78,8.75,8.75,0,0,1-.83-1.71,8.53,8.53,0,0,1,0-2.81,8,8,0,0,1,.69-1.37A4.59,4.59,0,0,1,15,67.1c0,.3-.16.44-.14.76.56-.46,1.21-.28,1.85-.83s.51-1.51,1-2c.12-.13.4-.19.62-.34s.93-.8,1.44-1.17c1.67-1.2,3.92-2,5.54-3.35,1.39-1.15,2.25-3.07,3.63-4.11.21-.16.81-.39,1.1-.62a15.33,15.33,0,0,0,1.16-1.23c1.87-1.9,4.13-3.76,6.24-5.55a28.51,28.51,0,0,0,2.53-2.19c.16-.18.24-.52.41-.69.37-.36.93-.56,1.3-.95s.66-.75,1-1.17c.66-.75,1.85-1.75,1.92-2.53s-.34-1.18-.28-1.85a3.29,3.29,0,0,1,2.26-2.74c.45-.11,1.09.12,1.65-.07s.91-1.32,1.37-1.78a15.57,15.57,0,0,1,2.8-2.05M52.5,45c-.49-.1-1.18,0-1.57-.27a18.25,18.25,0,0,1-1.31,2.19,15.67,15.67,0,0,1-1.3,2c-.22.2-.33.11-.48.34s-.05.38-.13.61-.46.62-.62,1c-.59,1.49-.2,3.34-.75,4.59-.15.34-.6.65-.89,1s-.56.81-.82,1.16c-1.45,1.94-3.08,3.48-4.59,5.21-.32.36-.81.64-1,1s-.09.71-.34.95c-.06.06-.43.06-.55.14-.29.19-.56.57-.34.82.51-.86,1.51-.62,2.46-.89.4-.11.77-.45,1.17-.54a13.62,13.62,0,0,0,2.87-.62c.16-.08.29-.27.48-.34s.48,0,.69-.07.55-.41.89-.55.71-.33,1-.48.74,0,1.1-.14.54-.37.82-.48c.09,0,.25.1.34.07.39-.09.71-.49,1.1-.61s1.15-.09,1.71-.28S54,60.16,54.56,60s1.3-.12,1.91-.27c.3-.08.53-.33.82-.41A14.56,14.56,0,0,0,59.08,59c.21-.09.34-.26.54-.34.45-.16,1-.12,1.37-.27.8-.29,1.58-.93,2.4-1.24.64-.24,1-.59,1.57-.82s.72-.27,1-.41c.47-.21,1.22-.21,1.85-.48a14.54,14.54,0,0,1,1.58-.82c.19,0,.35.06.54,0,.39-.11.68-.4,1.1-.48A9.41,9.41,0,0,0,72,54c.2-.06.37-.28.62-.34s.62,0,.89-.07.42-.34.68-.41.7,0,1-.07.48-.34.75-.41.31.09.48.07c.33,0,.59-.34.89-.41a7.19,7.19,0,0,0,1.37-.21c.4-.21.57-.86,1.3-.61-.14-.52-.58-.12-.89-.14a10.94,10.94,0,0,1-2.67-.62c-.12,0-.18-.23-.27-.27a6.05,6.05,0,0,0-1.3-.34c-2.61-.48-5-.7-7.26-1.37a6.54,6.54,0,0,0-1.51-.21,24.87,24.87,0,0,1-2.67-.55c-.38-.06-.8,0-1.1-.06s-.57-.41-.89-.42-.56.32-.82.28c-.09,0-.25-.33-.48-.41-.46-.17-.85,0-1.23-.07,0-.22.47-.2.27-.41-2.15-.46-4.37-1.48-6.71-2M37,56.35c-.05,0-.07.2-.2.27-.38.22-.16.11-.34.35a6.83,6.83,0,0,1-.69.55c-.34.24-.77.56-1.1.82,0,0-.22,0-.27.07-.21.2-.15.31-.34.47s-.27.1-.41.35-.36.2-.41.27,0,.21,0,.28-.2,0-.21.06c-.13.32-.11.63-.34.76.38.19.42-.16.62-.28s.3,0,.41-.13.26-.57.48-.69.15-.12.34-.27a7.56,7.56,0,0,1,.75-.55c.22-.14.12-.12.28-.27s.2,0,.27-.07,0-.23,0-.28.29,0,.48-.13.41-.45.48-.48.08.12.13.07,0-.35.07-.42c.32-.2.14-.25.28-.54,0-.06.52-.25.2-.48h-.2c.12.47-.17.21-.28.27m-7.94,7c-.34.22-.6.88-1,1.16-.11.09-.34.07-.41.14s.05.24,0,.27-.36.16-.48.28-.32.1-.34.13c-.18.25-.08.69-.07,1,.71-.22,1.17-1,1.71-1.44.21-.16.07-.09.21-.27s.22,0,.27-.07.23-.4.34-.48.12-.13.28-.27c.4-.39.72-.33.54-1.1-.08,0-.09-.09-.2-.07-.09.48-.61.5-.89.69"/></g></g></svg>